<svg xmlns="http://www.w3.org/2000/svg" width="46" height="34.259" viewBox="0 0 46 34.259">
  <g id="Group_19487" data-name="Group 19487" transform="translate(-1727.76 -726.021)">
    <path id="Path_35399" data-name="Path 35399" d="M1773.76,742.075H1771.3c0-.545,0-1,0-1.466a2.379,2.379,0,0,0-2.579-2.571h-35.893a2.378,2.378,0,0,0-2.6,2.6c0,.447,0,.893,0,1.372h-2.444c-.006-.16-.019-.317-.019-.476q0-5.525,0-11.051a4.24,4.24,0,0,1,4.455-4.461q18.532,0,37.061,0a4.215,4.215,0,0,1,4.413,3.543.4.4,0,0,0,.069.11Zm-34.226-8.79a2.146,2.146,0,0,0,2.142-2.134,2.153,2.153,0,1,0-4.306-.016A2.133,2.133,0,0,0,1739.534,733.285Zm-5.8,0a2.149,2.149,0,1,0-2.13-2.146A2.123,2.123,0,0,0,1733.735,733.288Z" transform="translate(0 0)" fill="#0336ff"/>
    <path id="Path_35400" data-name="Path 35400" d="M1727.867,736.407h45.614a2.4,2.4,0,0,1-.08.27c-.414.946-.805,1.9-1.25,2.831a3.175,3.175,0,0,1-2.912,1.912c-.163.007-.329,0-.494,0q-18.053,0-36.108.012a3.5,3.5,0,0,1-3.616-2.373C1728.671,738.178,1728.266,737.316,1727.867,736.407Zm22.778,2.5q8.575,0,17.154,0a1.172,1.172,0,0,0,.53-.036.66.66,0,0,0,.327-.447c0-.151-.2-.327-.346-.434-.092-.065-.262-.026-.4-.026h-34.444c-.119,0-.273-.041-.351.018-.16.118-.386.288-.39.44s.2.355.366.458c.121.075.321.026.486.026Q1742.111,738.91,1750.645,738.909Z" transform="translate(0.068 6.603)" fill="#0336ff"/>
    <path id="Path_35401" data-name="Path 35401" d="M1729.856,736.962c0-.589-.025-1.143.006-1.695a1.382,1.382,0,0,1,1.356-1.3c.134,0,.27,0,.4,0q17.808,0,35.614-.016a1.568,1.568,0,0,1,1.781,1.806c-.036.386-.005.777-.005,1.205Z" transform="translate(1.327 5.041)" fill="#0336ff"/>
    <path id="Path_35402" data-name="Path 35402" d="M1740.975,741.183c-.094.2-.144.339-.219.463q-2.714,4.439-5.429,8.875c-.183.3-.419.512-.765.285-.324-.211-.23-.5-.056-.784q2.721-4.436,5.432-8.873c.152-.249.335-.461.645-.34C1740.736,740.869,1740.843,741.052,1740.975,741.183Z" transform="translate(4.187 9.378)" fill="#0336ff"/>
    <path id="Path_35403" data-name="Path 35403" d="M1745.833,740.737a3.818,3.818,0,0,1,.463.52q2.564,4.161,5.111,8.334c.118.192.236.383.349.576a.447.447,0,0,1-.128.667.46.46,0,0,1-.69-.181c-.033-.049-.064-.1-.095-.152q-2.695-4.4-5.388-8.8c-.168-.273-.3-.538,0-.8A1.82,1.82,0,0,1,1745.833,740.737Z" transform="translate(11.137 9.355)" fill="#0336ff"/>
    <path id="Path_35404" data-name="Path 35404" d="M1736.593,729.64a1.184,1.184,0,1,1-1.169-1.217A1.184,1.184,0,0,1,1736.593,729.64Z" transform="translate(4.111 1.527)" fill="#0336ff"/>
    <path id="Path_35405" data-name="Path 35405" d="M1731.863,728.423a1.195,1.195,0,1,1-1.172,1.227A1.21,1.21,0,0,1,1731.863,728.423Z" transform="translate(1.864 1.527)" fill="#0336ff"/>
  </g>
</svg>
