<svg id="bath" xmlns="http://www.w3.org/2000/svg" width="28.491" height="16.96" viewBox="0 0 28.491 16.96">
  <path id="Path_1" data-name="Path 1" d="M168.447,140.143a.447.447,0,0,0,.447-.447v-1.568a.447.447,0,1,0-.894,0V139.7A.447.447,0,0,0,168.447,140.143Z" transform="translate(-159.376 -136.755)" fill="#0336ff"/>
  <path id="Path_2" data-name="Path 2" d="M330.447,141.861a.447.447,0,0,0,.447-.447v-1.853a.447.447,0,1,0-.894,0v1.853a.447.447,0,0,0,.447.447Z" transform="translate(-311.028 -138.097)" fill="#0336ff"/>
  <path id="Path_3" data-name="Path 3" d="M222.447,144.244a.447.447,0,0,0,.447-.447v-2.236a.447.447,0,1,0-.894,0V143.8A.447.447,0,0,0,222.447,144.244Z" transform="translate(-209.927 -139.969)" fill="#0336ff"/>
  <path id="Path_4" data-name="Path 4" d="M276.447,126.581a.447.447,0,0,0,.447-.447V123.64a.447.447,0,1,0-.894,0v2.494A.447.447,0,0,0,276.447,126.581Z" transform="translate(-260.477 -123.193)" fill="#0336ff"/>
  <path id="Path_5" data-name="Path 5" d="M134.525,380.555a.815.815,0,0,0,.769-.555h-1.538A.815.815,0,0,0,134.525,380.555Z" transform="translate(-127.32 -363.595)" fill="#0336ff"/>
  <path id="Path_6" data-name="Path 6" d="M354.938,380.555a.815.815,0,0,0,.769-.555h-1.538A.815.815,0,0,0,354.938,380.555Z" transform="translate(-333.653 -363.595)" fill="#0336ff"/>
  <path id="Path_7" data-name="Path 7" d="M64.188,245.657a2.251,2.251,0,0,0,2.107,1.456H82.942a2.251,2.251,0,0,0,2.107-1.456L87,239H62.241Z" transform="translate(-60.373 -231.602)" fill="#0336ff"/>
  <path id="Path_8" data-name="Path 8" d="M61.171,214H33.319a.311.311,0,0,0-.319.309v.394H61.491v-.394a.311.311,0,0,0-.319-.309Z" transform="translate(-33 -208.197)" fill="#0336ff"/>
</svg>
