<svg xmlns="http://www.w3.org/2000/svg" width="45" height="31.848" viewBox="0 0 45 31.848">
  <g id="Group_19485" data-name="Group 19485" transform="translate(-1886.391 -771.982)">
    <path id="Path_35377" data-name="Path 35377" d="M1931.391,737.457c-.2.911-.416,1.818-.608,2.73-.2.935-.547,1.227-1.509,1.229h-1.033c.216.3.4.533.566.781a7.911,7.911,0,0,1-.874,9.937.918.918,0,0,0-.222.57c-.019,1.259-.007,2.519-.011,3.778a1.736,1.736,0,0,1-1.909,1.906q-1.845.007-3.69,0a1.721,1.721,0,0,1-1.886-1.877c0-.512,0-1.022,0-1.576h-22.649c0,.47,0,.947,0,1.422,0,1.4-.638,2.031-2.04,2.032-1.186,0-2.373,0-3.559,0a1.725,1.725,0,0,1-1.886-1.88c0-1.3.006-2.608-.011-3.911a.818.818,0,0,0-.212-.529,7.943,7.943,0,0,1-.592-10.361c.053-.067.1-.141.2-.286-.421,0-.778,0-1.133,0a1.177,1.177,0,0,1-1.285-1.018q-.338-1.519-.627-3.05a1.145,1.145,0,0,1,1.208-1.374c1.288-.014,2.578-.018,3.866,0a.543.543,0,0,0,.608-.4,22.1,22.1,0,0,1,2.438-4.8,6.744,6.744,0,0,1,2.863-2.245,23.244,23.244,0,0,1,6.693-1.7,39.452,39.452,0,0,1,8.679-.1,27.261,27.261,0,0,1,7.13,1.581,7.534,7.534,0,0,1,4.188,3.792c.576,1.149,1.091,2.328,1.611,3.5a.5.5,0,0,0,.544.366c1.214-.019,2.432.014,3.646-.016a1.406,1.406,0,0,1,1.5.882Zm-8.567.314a26.1,26.1,0,0,0-2.086-4.6,3.452,3.452,0,0,0-1.387-1.3,14.921,14.921,0,0,0-4.289-1.355,35.834,35.834,0,0,0-9.927-.341,20.72,20.72,0,0,0-6.09,1.392,3.726,3.726,0,0,0-2.1,1.767c-.669,1.427-1.3,2.874-1.936,4.314-.014.031.016.08.026.127Zm2.248,9.16a3.39,3.39,0,1,0-3.4,3.4A3.407,3.407,0,0,0,1925.072,746.931Zm-28.794,3.389a3.41,3.41,0,0,0,3.253-3.5,3.374,3.374,0,0,0-3.485-3.269,3.385,3.385,0,1,0,.232,6.765Z" transform="translate(0 45.44)" fill="#0336ff"/>
  </g>
</svg>
