<svg id="Group_18728" data-name="Group 18728" xmlns="http://www.w3.org/2000/svg" width="24" height="24" viewBox="0 0 24 24">
  <path id="Path_2514" data-name="Path 2514" d="M0,0H24V24H0Z" fill="none"/>
  <g id="Group_1" data-name="Group 1" transform="translate(-336.592 -169)">
    <path id="Path_1" data-name="Path 1" d="M351.4,177.9a3.747,3.747,0,1,0-6.138,0c-5.006,1.848-5.975,7.011-3.594,10.246a6.357,6.357,0,0,0,1.581,1.512c1.029.692,2.682.391,2.6-1.33v-.9c0-.851-.374-1.171-.94-1.171h-.115a.484.484,0,0,1-.281-.83l3.066-2.611a1.032,1.032,0,0,1,1.538,0l3.066,2.611a.484.484,0,0,1-.281.83h-.115c-.566,0-.941.32-.941,1.171,0,1.512-.007.866.025,1.147.2,1.7,1.832,1.546,2.6,1.079a5.642,5.642,0,0,0,1.581-1.512c2.38-3.235,1.358-8.4-3.648-10.246" transform="translate(0 0)" fill="#0336ff"/>
    <path id="Rectangle_1" data-name="Rectangle 1" d="M.941,0h0a.941.941,0,0,1,.941.941v0a.941.941,0,0,1-.941.941h0A.941.941,0,0,1,0,.941v0A.941.941,0,0,1,.941,0Z" transform="translate(347.411 186.958)" fill="#ff9a03"/>
  </g>
</svg>
