<svg xmlns="http://www.w3.org/2000/svg" xmlns:xlink="http://www.w3.org/1999/xlink" width="50" height="32.227" viewBox="0 0 50 32.227">
  <defs>
    <linearGradient id="linear-gradient" x1="0.5" y1="1" x2="0.5" gradientUnits="objectBoundingBox">
      <stop offset="0" stop-color="#ffc2cc"/>
      <stop offset="1" stop-color="#fff2f4"/>
    </linearGradient>
    <linearGradient id="linear-gradient-2" x1="0.5" y1="1" x2="0.5" gradientUnits="objectBoundingBox">
      <stop offset="0" stop-color="#fd3a84"/>
      <stop offset="1" stop-color="#ffa68d"/>
    </linearGradient>
  </defs>
  <g id="_029-envelope" data-name="029-envelope" transform="translate(0 -91)">
    <g id="Group_18882" data-name="Group 18882" transform="translate(0.381 91)">
      <g id="Group_18881" data-name="Group 18881">
        <path id="Path_2529" data-name="Path 2529" d="M52.054,91H4.984a1.459,1.459,0,0,0-1.084.5l24.619,30.264L53.168,91.5A1.525,1.525,0,0,0,52.054,91Z" transform="translate(-3.9 -91)" fill="url(#linear-gradient)"/>
      </g>
    </g>
    <g id="Group_18884" data-name="Group 18884" transform="translate(0 91.498)">
      <g id="Group_18883" data-name="Group 18883">
        <path id="Path_2530" data-name="Path 2530" d="M49.648,96.1,25.963,116.736a1.465,1.465,0,0,1-1.925,0L.381,96.1A1.427,1.427,0,0,0,0,97.067v29.3a1.488,1.488,0,0,0,1.465,1.465h47.07A1.469,1.469,0,0,0,50,126.364v-29.3A1.558,1.558,0,0,0,49.648,96.1Z" transform="translate(0 -96.1)" fill="url(#linear-gradient-2)"/>
      </g>
    </g>
  </g>
</svg>
