<svg xmlns="http://www.w3.org/2000/svg" width="37.874" height="40" viewBox="0 0 37.874 40">
  <g id="Group_19490" data-name="Group 19490" transform="translate(-1928.184 -723.959)">
    <path id="Path_35412" data-name="Path 35412" d="M1966.027,757.9h-12.593v-.485q0-4.536,0-9.073a4.929,4.929,0,0,0-4.792-5.162c-3.2-.279-6.394-.613-9.59-.929-.761-.075-1.045.169-1.045.948,0,.683,0,1.366,0,2.071h-9.82V739.3a4.913,4.913,0,0,1,5.127-5.173c2.5-.018,5-.019,7.493-.022q12.336-.017,24.67-.03h.552Z" transform="translate(0 6.023)" fill="#0336ff"/>
    <path id="Path_35413" data-name="Path 35413" d="M1932.593,726.849v-2.89h.491q11.92,0,23.838,0a6.306,6.306,0,0,1,6.509,6.49c0,1.328,0,2.654,0,4.005H1952.21c0-.55-.035-1.09.006-1.623a3.7,3.7,0,0,0-3.611-4.056c-4.05-.429-8.085-.97-12.127-1.462C1935.191,727.158,1933.9,727.005,1932.593,726.849Z" transform="translate(2.626)" fill="#0336ff"/>
    <path id="Path_35414" data-name="Path 35414" d="M1932.559,752.952a3.435,3.435,0,0,1-3.236-4.706c.771-1.838,1.715-3.606,2.61-5.392a.7.7,0,0,1,1.294.019c.875,1.747,1.794,3.477,2.563,5.271A3.45,3.45,0,0,1,1932.559,752.952Z" transform="translate(0.522 11.007)" fill="#0336ff"/>
    <path id="Path_35415" data-name="Path 35415" d="M1956.079,731.447v2.759H1944.9v-2.759Z" transform="translate(9.959 4.46)" fill="#0336ff"/>
  </g>
</svg>
