<svg xmlns="http://www.w3.org/2000/svg" width="69.631" height="100" viewBox="0 0 69.631 100">
  <g id="Group_19530" data-name="Group 19530" transform="translate(-127.5 -338)">
    <g id="Group_1" data-name="Group 1" transform="translate(127.5 338)">
      <path id="Path_1" data-name="Path 1" d="M388.645,197.912a16.467,16.467,0,1,0-26.973,0c-22,8.122-26.255,30.81-15.8,45.027a27.942,27.942,0,0,0,6.947,6.643c4.523,3.039,11.786,1.72,11.425-5.844V239.8c0-3.739-1.645-5.147-4.133-5.147h-.505c-1.719,0-2.523-2.378-1.233-3.647l13.471-11.473a4.537,4.537,0,0,1,6.757,0l13.471,11.473c1.29,1.27.486,3.647-1.233,3.647h-.5c-2.489,0-4.133,1.408-4.133,5.147,0,6.643-.032,3.8.11,5.038.859,7.457,8.051,6.795,11.414,4.743a24.8,24.8,0,0,0,6.948-6.643c10.458-14.217,5.967-36.9-16.033-45.027" transform="translate(-340.43 -172)" fill="#0336ff"/>
      <path id="Rectangle_1" data-name="Rectangle 1" d="M3.3,0H4.973a3.3,3.3,0,0,1,3.3,3.3V4.972a3.3,3.3,0,0,1-3.3,3.3H3.3A3.3,3.3,0,0,1,0,4.974V3.3A3.3,3.3,0,0,1,3.3,0Z" transform="translate(30.68 65.73)" fill="#0336ff"/>
    </g>
    <path id="Path_35452" data-name="Path 35452" d="M-47.064-19.531h8.388a1.669,1.669,0,0,1,.709.113.572.572,0,0,1,.3.355,2.181,2.181,0,0,1,.075.634,2.1,2.1,0,0,1-.075.626.518.518,0,0,1-.256.324,1.758,1.758,0,0,1-.769.136h-2.882v7.589a4.181,4.181,0,0,1-.023.513,1.225,1.225,0,0,1-.136.385.639.639,0,0,1-.4.309,2.572,2.572,0,0,1-.754.091,2.494,2.494,0,0,1-.747-.091.637.637,0,0,1-.392-.309,1.218,1.218,0,0,1-.136-.392,4.383,4.383,0,0,1-.023-.52v-7.573h-2.9a1.669,1.669,0,0,1-.709-.113.572.572,0,0,1-.3-.355,2.181,2.181,0,0,1-.075-.634,2.1,2.1,0,0,1,.075-.626.518.518,0,0,1,.256-.324A1.757,1.757,0,0,1-47.064-19.531Zm18.511,3.183q.966.422.966,1.041a2.446,2.446,0,0,1-.241.822q-.241.566-.407.988L-29.9-9.454a1.558,1.558,0,0,1-.754.935,1.358,1.358,0,0,1-.573.106,1.054,1.054,0,0,1-.671-.264,1.355,1.355,0,0,1-.43-.536l-.121-.256q-.121-.3-.89-2.354-.151.362-.445,1.184t-.377,1.026q-.083.2-.106.272a1.68,1.68,0,0,1-.128.249,1.548,1.548,0,0,1-.241.317,1.142,1.142,0,0,1-.83.362,1.184,1.184,0,0,1-.785-.264,1.375,1.375,0,0,1-.422-.536l-2.278-5.552a2.525,2.525,0,0,1-.151-.588q0-.6.86-.95a2.21,2.21,0,0,1,.785-.2.856.856,0,0,1,.49.128.859.859,0,0,1,.264.256,1.381,1.381,0,0,1,.121.264q.256.6,1.071,2.836l.89-2.444a1.179,1.179,0,0,1,.332-.528,1.272,1.272,0,0,1,.89-.438,1.265,1.265,0,0,1,.777.241,1.443,1.443,0,0,1,.445.483l.121.256q.754,2.112.89,2.414l.92-2.5q.362-.966,1.086-.966A1.4,1.4,0,0,1-28.552-16.348Zm1.8,1.267a4.384,4.384,0,0,1,.023-.52,1.4,1.4,0,0,1,.128-.4q.211-.392,1.177-.392a1.6,1.6,0,0,1,1.026.256.831.831,0,0,1,.272.649q.015.151.015.438v5.28a4.383,4.383,0,0,1-.023.52,1.209,1.209,0,0,1-.143.4q-.2.392-1.162.392-.95,0-1.162-.407a1.41,1.41,0,0,1-.128-.392,4.356,4.356,0,0,1-.023-.528Zm2.482-2.8a.639.639,0,0,1-.4.309,2.6,2.6,0,0,1-.762.091,2.6,2.6,0,0,1-.762-.091.633.633,0,0,1-.4-.317,1.294,1.294,0,0,1-.136-.4,4.384,4.384,0,0,1-.023-.52,4.384,4.384,0,0,1,.023-.52,1.232,1.232,0,0,1,.128-.385q.211-.407,1.177-.407.95,0,1.147.407a1.209,1.209,0,0,1,.143.4,4.383,4.383,0,0,1,.023.52,4.383,4.383,0,0,1-.023.52A1.218,1.218,0,0,1-24.275-17.879Zm6.7-1.841a.639.639,0,0,1,.4-.309,2.6,2.6,0,0,1,.762-.091,2.6,2.6,0,0,1,.762.091.633.633,0,0,1,.4.317,1.294,1.294,0,0,1,.136.4,4.383,4.383,0,0,1,.023.52v9.007a4.383,4.383,0,0,1-.023.52,1.073,1.073,0,0,1-.143.385q-.226.407-1.275.407t-1.169-.739a2.222,2.222,0,0,1-1.765.724,3.347,3.347,0,0,1-2.474-1.184,3.9,3.9,0,0,1-1.116-2.761A3.911,3.911,0,0,1-21.937-15.2a3.348,3.348,0,0,1,2.467-1.192,2.118,2.118,0,0,1,1.735.754v-3.168a4.383,4.383,0,0,1,.023-.52A1.218,1.218,0,0,1-17.577-19.72Zm-2.452,8.2a1.271,1.271,0,0,0,.95.407,1.2,1.2,0,0,0,.928-.407,1.307,1.307,0,0,0,.37-.9,1.393,1.393,0,0,0-.355-.913,1.186,1.186,0,0,0-.958-.422,1.218,1.218,0,0,0-.966.415,1.358,1.358,0,0,0-.362.913A1.277,1.277,0,0,0-20.028-11.52Zm11.473-8.2a.639.639,0,0,1,.4-.309,2.6,2.6,0,0,1,.762-.091,2.6,2.6,0,0,1,.762.091.633.633,0,0,1,.4.317,1.294,1.294,0,0,1,.136.4,4.383,4.383,0,0,1,.023.52v9.007a4.383,4.383,0,0,1-.023.52,1.073,1.073,0,0,1-.143.385q-.226.407-1.275.407t-1.169-.739a2.222,2.222,0,0,1-1.765.724,3.347,3.347,0,0,1-2.474-1.184,3.9,3.9,0,0,1-1.116-2.761A3.911,3.911,0,0,1-12.915-15.2a3.348,3.348,0,0,1,2.467-1.192,2.118,2.118,0,0,1,1.735.754v-3.168a4.382,4.382,0,0,1,.023-.52A1.218,1.218,0,0,1-8.555-19.72Zm-2.452,8.2a1.271,1.271,0,0,0,.95.407,1.2,1.2,0,0,0,.928-.407,1.307,1.307,0,0,0,.37-.9,1.393,1.393,0,0,0-.355-.913,1.186,1.186,0,0,0-.958-.422,1.218,1.218,0,0,0-.966.415,1.358,1.358,0,0,0-.362.913A1.277,1.277,0,0,0-11.007-11.52Zm6.14-7.3a4.383,4.383,0,0,1,.023-.52,1.4,1.4,0,0,1,.128-.4q.211-.407,1.177-.407.92,0,1.147.407a1.2,1.2,0,0,1,.143.407,4.59,4.59,0,0,1,.023.528v6.985a1.578,1.578,0,0,0,.091.686q.091.143.4.143a2.415,2.415,0,0,1,.415.023.755.755,0,0,1,.256.128q.3.2.3,1.071,0,.95-.3,1.162a3.27,3.27,0,0,1-1.871.091,1.884,1.884,0,0,1-1.509-.769,4.952,4.952,0,0,1-.422-2.354ZM7.58-13.384a1.832,1.832,0,0,1-.46,1.373,1.435,1.435,0,0,1-1.018.445H2.526a.827.827,0,0,0,.5.709,1.98,1.98,0,0,0,1,.287,4.153,4.153,0,0,0,1.373-.181l.166-.06a1.521,1.521,0,0,1,.6-.166q.483,0,.83.679a1.665,1.665,0,0,1,.2.694q0,1.343-3.213,1.343a4.848,4.848,0,0,1-1.984-.385A3.37,3.37,0,0,1,.64-9.665,4.338,4.338,0,0,1-.31-12.4a3.945,3.945,0,0,1,1.23-3.04,4.344,4.344,0,0,1,3.07-1.139A3.429,3.429,0,0,1,7.067-15.1,3.067,3.067,0,0,1,7.58-13.384ZM4.4-12.939q.573,0,.573-.483a.68.68,0,0,0-.264-.558,1.182,1.182,0,0,0-.754-.211,1.525,1.525,0,0,0-.973.4,1.122,1.122,0,0,0-.483.852Z" transform="translate(182.532 446.262)" fill="#0336ff"/>
  </g>
</svg>
