<svg id="Group_18470" data-name="Group 18470" xmlns="http://www.w3.org/2000/svg" width="24" height="24" viewBox="0 0 24 24">
  <path id="Path_2288" data-name="Path 2288" d="M0,0H24V24H0Z" fill="none"/>
  <path id="Path_2289" data-name="Path 2289" d="M19,8.71,13.667,4.562a2.666,2.666,0,0,0-3.274,0L5.059,8.71a2.665,2.665,0,0,0-1.029,2.1v7.2a2,2,0,0,0,2,2h12a2,2,0,0,0,2-2v-7.2A2.666,2.666,0,0,0,19,8.71" fill="none" stroke="#0336ff" stroke-linecap="round" stroke-linejoin="round" stroke-width="1.5"/>
  <path id="Path_2290" data-name="Path 2290" d="M16,15a8.5,8.5,0,0,1-8,0" fill="none" stroke="#ff9a03" stroke-linecap="round" stroke-linejoin="round" stroke-width="1.5"/>
</svg>
