<svg xmlns="http://www.w3.org/2000/svg" width="39.969" height="40" viewBox="0 0 39.969 40">
  <g id="Group_19488" data-name="Group 19488" transform="translate(-1687.188 -721.493)">
    <path id="Path_35406" data-name="Path 35406" d="M1722.451,756.766h-21.144V735.673h21.144Zm-4.792-4.7v-9.356h-11.673v9.356Zm-11.673-11.507h2.3V738.2h-2.3Zm6.98,0v-2.367h-2.284v2.367Zm4.7-2.359h-2.305v2.351h2.305Z" transform="translate(4.706 4.727)" fill="#0336ff"/>
    <path id="Path_35407" data-name="Path 35407" d="M1722.46,735.712l-11.087.008h-10.085v-.432c0-1.107.009-2.213-.007-3.319a.611.611,0,0,1,.313-.6c2.127-1.4,4.24-2.828,6.369-4.228a.711.711,0,0,0,.361-.692c-.016-1.653-.007-3.305-.007-4.959h7.032c0,1.692-.007,3.385.007,5.077a.613.613,0,0,0,.2.449c2.3,1.527,4.6,3.037,6.907,4.552Z" transform="translate(4.697 0)" fill="#0336ff"/>
    <path id="Path_35408" data-name="Path 35408" d="M1687.191,744.413h16.421v9.419h-16.421Zm12.917,2.459h-9.324v2.285h9.324Z" transform="translate(0.001 7.64)" fill="#0336ff"/>
    <path id="Path_35409" data-name="Path 35409" d="M1703.617,744.945h-16.429V735.7h16.429Zm-12.832-4.465h9.316v-2.285h-9.316Z" transform="translate(0 4.736)" fill="#0336ff"/>
  </g>
</svg>
