<svg xmlns="http://www.w3.org/2000/svg" width="40" height="40.001" viewBox="0 0 40 40.001">
  <g id="Group_19654" data-name="Group 19654" transform="translate(4492 -864)">
    <rect id="Mask" width="40" height="40.001" rx="20" transform="translate(-4492 864)" fill="#0336ff"/>
    <g id="Group_1" data-name="Group 1" transform="translate(-4482.601 871.958)">
      <path id="Path_1" data-name="Path 1" d="M355.111,179.89a5.014,5.014,0,1,0-8.213,0c-6.7,2.473-7.994,9.382-4.81,13.71a8.508,8.508,0,0,0,2.115,2.023c1.377.925,3.589.524,3.479-1.78v-1.2c0-1.139-.5-1.567-1.258-1.567h-.154a.647.647,0,0,1-.375-1.111l4.1-3.494a1.381,1.381,0,0,1,2.058,0l4.1,3.494a.647.647,0,0,1-.375,1.111h-.154c-.758,0-1.259.429-1.259,1.567,0,2.023-.01,1.158.033,1.534.262,2.271,2.451,2.069,3.476,1.444a7.55,7.55,0,0,0,2.116-2.023c3.184-4.329,1.817-11.237-4.882-13.71" transform="translate(-340.429 -172)" fill="#fff"/>
      <path id="Rectangle_1" data-name="Rectangle 1" d="M1.259,0h0A1.259,1.259,0,0,1,2.518,1.259v0A1.259,1.259,0,0,1,1.259,2.518h0A1.259,1.259,0,0,1,0,1.26v0A1.259,1.259,0,0,1,1.259,0Z" transform="translate(9.342 20.014)" fill="#fff"/>
    </g>
  </g>
</svg>
