<svg xmlns="http://www.w3.org/2000/svg" width="59.998" height="60" viewBox="0 0 59.998 60">
  <g id="Group_19441" data-name="Group 19441" transform="translate(-30 -237)">
    <rect id="Mask" width="59.998" height="60" rx="29.999" transform="translate(30 237)" fill="#01e08f"/>
    <path id="Icon_metro-mastercard" data-name="Icon metro-mastercard" d="M11.551,21.063h-.174q-.629,0-.629.428,0,.294.268.294a.447.447,0,0,0,.375-.2A.929.929,0,0,0,11.551,21.063Zm5.287-.482h.83v-.04a.206.206,0,0,0,.007-.087q-.007-.033-.013-.094a.376.376,0,0,0-.027-.107.278.278,0,0,0-.06-.087.328.328,0,0,0-.1-.067.382.382,0,0,0-.154-.027q-.375,0-.482.509Zm7.227.482H23.9q-.642,0-.642.428,0,.294.268.294a.447.447,0,0,0,.375-.2A.929.929,0,0,0,24.066,21.063Zm4.27-.348q0-.549-.4-.549a.475.475,0,0,0-.415.268,1.31,1.31,0,0,0-.161.683q0,.562.375.562a.5.5,0,0,0,.435-.268A1.3,1.3,0,0,0,28.335,20.715ZM8.995,18.828h1.164L9.57,22.335h-.75l.428-2.69-.95,2.69H7.777l-.054-2.677-.455,2.677H6.559l.589-3.507H8.232l.027,2.182Zm3.386,1.432q0,.08-.054.562-.214,1.352-.228,1.512h-.629l.013-.294a.92.92,0,0,1-.776.348.646.646,0,0,1-.5-.214.8.8,0,0,1-.194-.562.992.992,0,0,1,.348-.81,1.492,1.492,0,0,1,.977-.288,2.887,2.887,0,0,1,.308.013.376.376,0,0,1,.007-.074q.007-.033.013-.06a.184.184,0,0,0,.007-.04q0-.268-.482-.268a2.488,2.488,0,0,0-.79.134q0-.054.094-.642a3.279,3.279,0,0,1,.9-.147q.99,0,.99.83Zm2.088-.776-.107.656a4.077,4.077,0,0,0-.549-.04q-.361,0-.361.228a.2.2,0,0,0,.06.161,1.21,1.21,0,0,0,.288.147.841.841,0,0,1,.535.8q0,.964-1.164.95a3.242,3.242,0,0,1-.776-.08q0-.027.094-.656a2.611,2.611,0,0,0,.683.107q.428,0,.428-.254a.208.208,0,0,0-.06-.154,1.2,1.2,0,0,0-.288-.167.85.85,0,0,1-.576-.79q0-.964,1.124-.964A3.494,3.494,0,0,1,14.469,19.484Zm1.178,0h.375l-.094.7H15.54q-.027.228-.087.542t-.094.515a2.375,2.375,0,0,0-.033.241q0,.214.254.214a.88.88,0,0,0,.214-.027l-.107.629a1.693,1.693,0,0,1-.535.094q-.576,0-.6-.629a5.786,5.786,0,0,1,.107-.75q.04-.268.335-1.954h.736Zm2.717.977a3,3,0,0,1-.094.7H16.785a.458.458,0,0,0,.134.442.768.768,0,0,0,.509.147,1.716,1.716,0,0,0,.776-.187l-.12.723a2.963,2.963,0,0,1-.763.107,1.124,1.124,0,0,1-1.271-1.271,1.92,1.92,0,0,1,.368-1.211,1.13,1.13,0,0,1,.93-.475.99.99,0,0,1,.743.281,1.027,1.027,0,0,1,.274.75Zm1.86-.99a3.156,3.156,0,0,0-.294.83q-.294-.027-.415.321a13.547,13.547,0,0,0-.335,1.713h-.75l.04-.187q.294-1.74.388-2.663h.683l-.04.442a1.6,1.6,0,0,1,.341-.395.443.443,0,0,1,.381-.06Zm2.5-.549-.12.763a1.528,1.528,0,0,0-.669-.187.812.812,0,0,0-.683.368,1.564,1.564,0,0,0-.268.944.986.986,0,0,0,.181.629.62.62,0,0,0,.515.228,1.513,1.513,0,0,0,.642-.174l-.134.79a2.468,2.468,0,0,1-.669.107,1.2,1.2,0,0,1-.957-.408,1.626,1.626,0,0,1-.355-1.1,2.382,2.382,0,0,1,.475-1.532,1.5,1.5,0,0,1,1.225-.6,2.4,2.4,0,0,1,.816.174ZM24.9,20.26a3.475,3.475,0,0,1-.054.562q-.174,1.057-.228,1.512H24l.013-.294a.935.935,0,0,1-.79.348.626.626,0,0,1-.5-.214.823.823,0,0,1-.187-.562,1,1,0,0,1,.341-.81,1.464,1.464,0,0,1,.97-.288,2.664,2.664,0,0,1,.308.013.636.636,0,0,0,.027-.174q0-.268-.482-.268a2.488,2.488,0,0,0-.79.134q0-.054.107-.642a3.279,3.279,0,0,1,.9-.147q.977,0,.977.83Zm1.887-.79a2.579,2.579,0,0,0-.281.83.385.385,0,0,0-.422.308,15.088,15.088,0,0,0-.341,1.727h-.75l.04-.187q.254-1.392.388-2.663h.7a2.715,2.715,0,0,1-.054.442,1.8,1.8,0,0,1,.355-.395.419.419,0,0,1,.368-.06Zm1.887-.642h.75l-.576,3.507h-.709l.04-.254a.96.96,0,0,1-.7.308.794.794,0,0,1-.663-.321,1.366,1.366,0,0,1-.248-.857,2.082,2.082,0,0,1,.368-1.231,1.051,1.051,0,0,1,.863-.522.869.869,0,0,1,.709.388Zm1.486,1.74a7.281,7.281,0,0,0-11.671-5.809,7.674,7.674,0,0,1,2.289,3.8H20.1a7.206,7.206,0,0,0-2.115-3.386,7.206,7.206,0,0,0-2.115,3.386h-.669a7.674,7.674,0,0,1,2.289-3.8,7.285,7.285,0,0,0-10.7,2.155A7.278,7.278,0,0,0,13.1,27.849a7.151,7.151,0,0,0,4.39-1.472,7.7,7.7,0,0,1-2.208-3.533h.669a7.146,7.146,0,0,0,2.034,3.119,7.146,7.146,0,0,0,2.034-3.119h.669a7.7,7.7,0,0,1-2.208,3.533,7.268,7.268,0,0,0,11.671-5.809ZM33.408,12V29.134a1.737,1.737,0,0,1-1.713,1.713H4.284a1.646,1.646,0,0,1-1.2-.509,1.646,1.646,0,0,1-.509-1.2V12a1.646,1.646,0,0,1,.509-1.2,1.646,1.646,0,0,1,1.2-.509H31.694A1.737,1.737,0,0,1,33.408,12Z" transform="translate(42.429 246.711)" fill="#fff"/>
  </g>
</svg>
