<svg xmlns="http://www.w3.org/2000/svg" width="40" height="34.725" viewBox="0 0 40 34.725">
  <g id="Group_19484" data-name="Group 19484" transform="translate(-1808.851 -725.825)">
    <path id="Path_35374" data-name="Path 35374" d="M1821.484,758.395c-2.191,0-4.329.137-6.442-.041a4.058,4.058,0,0,1-3.563-4.111c-.02-4.232-.026-8.462,0-12.693a4.144,4.144,0,0,1,2.022-3.532q5.5-3.672,10.988-7.348c.607-.407,1.216-.807,1.818-1.219a1.468,1.468,0,0,1,1.789,0q6.477,4.336,12.949,8.675a4.164,4.164,0,0,1,1.894,3.648q0,6.123,0,12.246a4.29,4.29,0,0,1-4.448,4.453c-1.831,0-3.663,0-5.563,0v-.487q0-3.933,0-7.866a4.288,4.288,0,0,0-4.512-4.518,24.449,24.449,0,0,0-3.3.08,4.178,4.178,0,0,0-3.63,4.254c-.011,2.666,0,5.334,0,8Z" transform="translate(1.639 2.082)" fill="#0336ff"/>
    <path id="Path_35375" data-name="Path 35375" d="M1828.911,725.826a4.209,4.209,0,0,1,2.406.785q8.39,5.805,16.78,11.616a1.445,1.445,0,0,1,.492,2.087,1.463,1.463,0,0,1-2.132.259l-16.264-11.261c-.135-.093-.269-.189-.4-.28a1.5,1.5,0,0,0-1.935,0l-12.766,8.864c-1.309.91-2.611,1.824-3.927,2.721a1.432,1.432,0,1,1-1.593-2.373q3.179-2.195,6.346-4.406,5.137-3.564,10.27-7.134A4.483,4.483,0,0,1,1828.911,725.826Z" transform="translate(0 0)" fill="#0336ff"/>
    <path id="Path_35376" data-name="Path 35376" d="M1826.661,727.489a2.492,2.492,0,0,1,1.81-1.322,10.734,10.734,0,0,1,2.575-.032,2.728,2.728,0,0,1,2.329,2.378,3.493,3.493,0,0,1,.029.536c0,1.006,0,2.012,0,3.109Z" transform="translate(11.176 0.154)" fill="#0336ff"/>
  </g>
</svg>
