<svg xmlns="http://www.w3.org/2000/svg" width="98.803" height="98.899" viewBox="0 0 98.803 98.899">
  <g id="Group_4415" data-name="Group 4415" transform="translate(-135.248 -274.148)">
    <path id="Path" d="M0,.1V10A39.591,39.591,0,0,1,34.469,54.179,39.592,39.592,0,0,1,0,88.648v9.9a49.4,49.4,0,0,0,44.324-54.13A49.411,49.411,0,0,0,0,0H0Z" transform="translate(189.477 274.148)" fill="#01e08f"/>
    <path id="Path-2" data-name="Path" d="M0,10.9l7.082,7.33A39.6,39.6,0,0,1,26.4,9.9V0h0A48.669,48.669,0,0,0,0,10.9Z" transform="translate(153.175 274.297)" fill="#01e08f"/>
    <path id="Path-3" data-name="Path" d="M0,26.4H9.9A39.7,39.7,0,0,1,18.027,7.082L10.945,0h0A48.953,48.953,0,0,0,0,26.4Z" transform="translate(135.248 292.176)" fill="#01e08f"/>
    <path id="Path-4" data-name="Path" d="M15.749,24.168l-10.5-10.5L0,18.918,15.749,34.667,45.166,5.25,39.916,0h0Z" transform="translate(161.942 306.191)" fill="#01e08f"/>
    <path id="Path-5" data-name="Path" d="M10.945,26.4l7.032-7.082A39.631,39.631,0,0,1,9.9,0H0A49.719,49.719,0,0,0,10.945,26.4Z" transform="translate(135.297 328.477)" fill="#01e08f"/>
    <path id="Path-6" data-name="Path" d="M0,6.785A49.5,49.5,0,0,0,26.4,17.977v-9.9A39.631,39.631,0,0,1,7.082,0Z" transform="translate(153.175 355.07)" fill="#01e08f"/>
    <path id="Path-7" data-name="Path" d="M0,.1V10A39.591,39.591,0,0,1,34.469,54.179,39.592,39.592,0,0,1,0,88.648v9.9a49.4,49.4,0,0,0,44.324-54.13A49.411,49.411,0,0,0,0,0H0Z" transform="translate(189.477 274.148)" fill="#01e08f"/>
    <path id="Path-8" data-name="Path" d="M0,10.9l7.082,7.33A39.6,39.6,0,0,1,26.4,9.9V0h0A48.669,48.669,0,0,0,0,10.9Z" transform="translate(153.175 274.297)" fill="#01e08f"/>
    <path id="Path-9" data-name="Path" d="M0,26.4H9.9A39.7,39.7,0,0,1,18.027,7.082L10.945,0h0A48.953,48.953,0,0,0,0,26.4Z" transform="translate(135.248 292.176)" fill="#01e08f"/>
    <path id="Path-10" data-name="Path" d="M15.749,24.168l-10.5-10.5L0,18.918,15.749,34.667,45.166,5.25,39.916,0h0Z" transform="translate(161.942 306.191)" fill="#01e08f"/>
    <path id="Path-11" data-name="Path" d="M10.945,26.4l7.032-7.082A39.631,39.631,0,0,1,9.9,0H0A49.719,49.719,0,0,0,10.945,26.4Z" transform="translate(135.297 328.477)" fill="#01e08f"/>
    <path id="Path-12" data-name="Path" d="M0,6.785A49.5,49.5,0,0,0,26.4,17.977v-9.9A39.631,39.631,0,0,1,7.082,0Z" transform="translate(153.175 355.07)" fill="#01e08f"/>
    <path id="Path-13" data-name="Path" d="M0,.1V10A39.591,39.591,0,0,1,34.469,54.179,39.592,39.592,0,0,1,0,88.648v9.9a49.4,49.4,0,0,0,44.324-54.13A49.411,49.411,0,0,0,0,0H0Z" transform="translate(189.477 274.148)" fill="#01e08f"/>
    <path id="Path-14" data-name="Path" d="M0,10.9l7.082,7.33A39.6,39.6,0,0,1,26.4,9.9V0h0A48.669,48.669,0,0,0,0,10.9Z" transform="translate(153.175 274.297)" fill="#01e08f"/>
    <path id="Path-15" data-name="Path" d="M0,26.4H9.9A39.7,39.7,0,0,1,18.027,7.082L10.945,0h0A48.953,48.953,0,0,0,0,26.4Z" transform="translate(135.248 292.176)" fill="#01e08f"/>
    <path id="Path-16" data-name="Path" d="M15.749,24.168l-10.5-10.5L0,18.918,15.749,34.667,45.166,5.25,39.916,0h0Z" transform="translate(161.942 306.191)" fill="#01e08f"/>
    <path id="Path-17" data-name="Path" d="M10.945,26.4l7.032-7.082A39.631,39.631,0,0,1,9.9,0H0A49.719,49.719,0,0,0,10.945,26.4Z" transform="translate(135.297 328.477)" fill="#01e08f"/>
    <path id="Path-18" data-name="Path" d="M0,6.785A49.5,49.5,0,0,0,26.4,17.977v-9.9A39.631,39.631,0,0,1,7.082,0Z" transform="translate(153.175 355.07)" fill="#01e08f"/>
  </g>
</svg>
