<svg xmlns="http://www.w3.org/2000/svg" width="50" height="32.233" viewBox="0 0 50 32.233">
  <g id="Group_19483" data-name="Group 19483" transform="translate(-1846.676 -727.427)">
    <path id="Path_35369" data-name="Path 35369" d="M1846.676,739.513a7.654,7.654,0,0,0,3.2.5q22.482-.016,44.964-.007c1.316,0,1.836.517,1.836,1.822q0,3.371,0,6.738a1.5,1.5,0,0,1-1.675,1.692c-1.411,0-2.823,0-4.281,0V749.2c0-1.563,0-3.125,0-4.688a1.468,1.468,0,1,0-2.928.011c0,1.888,0,3.774,0,5.7h-2.931c0-.949.014-1.9,0-2.857a1.454,1.454,0,0,0-2.039-1.374,1.438,1.438,0,0,0-.885,1.4c-.005.926-.009,1.854-.016,2.782,0,.012-.018.023-.048.062H1879v-.507q0-2.563,0-5.127a1.475,1.475,0,1,0-2.928-.012c0,1.868,0,3.739,0,5.639h-2.931c0-.964.009-1.918,0-2.873a1.416,1.416,0,0,0-.915-1.374,1.261,1.261,0,0,0-1.524.3,2.06,2.06,0,0,0-.466,1.122c-.066.923-.021,1.852-.021,2.82h-2.93v-.507q0-2.563,0-5.127a1.475,1.475,0,1,0-2.928.011q0,2.541,0,5.079v.555h-2.93V749.1c0-.587.011-1.173,0-1.758a1.462,1.462,0,1,0-2.923.023c-.012.942,0,1.884,0,2.86h-2.93V749.7q0-2.563,0-5.125a1.473,1.473,0,1,0-2.928-.014q-.005,2.563,0,5.125v.555a6.882,6.882,0,0,1-3.564-.471,4.424,4.424,0,0,1-2.277-2.9c-.038-.139-.077-.278-.115-.418Z" transform="translate(0 9.399)" fill="#0336ff"/>
    <path id="Path_35370" data-name="Path 35370" d="M1846.676,737.648a2.5,2.5,0,0,1,2.731-1.772q18.5.038,37.007.009c1.436,0,2.9.2,4.29-.5v4.9h-.628q-20.333,0-40.667.014a2.509,2.509,0,0,1-2.732-1.772Z" transform="translate(0 6.187)" fill="#0336ff"/>
    <path id="Path_35371" data-name="Path 35371" d="M1853.332,736.162v-4.9c1.591.768,3.269.487,4.91.491,8.311.023,16.622.011,24.935.012a2.2,2.2,0,1,1,.307,4.388c-.145.009-.291.005-.439.005h-29.713Z" transform="translate(5.177 2.986)" fill="#0336ff"/>
    <path id="Path_35372" data-name="Path 35372" d="M1865.022,727.472v4.32a1.379,1.379,0,0,1-.2.029q-4.637,0-9.271,0a2.19,2.19,0,0,1-2.1-1.463,2.082,2.082,0,0,1,.658-2.377,2.482,2.482,0,0,1,1.321-.524c3.156-.043,6.311-.021,9.466-.02A.558.558,0,0,1,1865.022,727.472Z" transform="translate(5.167 0.001)" fill="#0336ff"/>
    <path id="Path_35373" data-name="Path 35373" d="M1867.369,731.8h-5.791v-4.345c.131-.009.27-.027.409-.027,1.269,0,2.538-.005,3.808,0a1.479,1.479,0,0,1,1.616,1.6c0,.878,0,1.756-.005,2.635A.738.738,0,0,1,1867.369,731.8Z" transform="translate(11.589 0)" fill="#0336ff"/>
  </g>
</svg>
