<svg xmlns="http://www.w3.org/2000/svg" width="165.455" height="50" viewBox="0 0 165.455 50">
  <g id="Group_19530" data-name="Group 19530" transform="translate(-127.5 -338)">
    <g id="Group_1" data-name="Group 1" transform="translate(127.5 338)">
      <path id="Path_1" data-name="Path 1" d="M370.907,188.379a10.409,10.409,0,1,0-17.05,0c-13.907,5.134-16.6,19.476-9.985,28.462a17.663,17.663,0,0,0,4.392,4.2c2.859,1.921,7.45,1.087,7.222-3.694v-2.488c0-2.364-1.04-3.254-2.612-3.254h-.32a1.344,1.344,0,0,1-.779-2.306l8.515-7.253a2.868,2.868,0,0,1,4.271,0l8.515,7.253a1.344,1.344,0,0,1-.78,2.306h-.319c-1.573,0-2.613.89-2.613,3.254,0,4.2-.021,2.4.069,3.185.543,4.714,5.089,4.3,7.215,3a15.672,15.672,0,0,0,4.392-4.2c6.611-8.987,3.772-23.328-10.135-28.462" transform="translate(-340.429 -172)" fill="#fff"/>
      <path id="Rectangle_1" data-name="Rectangle 1" d="M2.613,0h0A2.613,2.613,0,0,1,5.228,2.613v0A2.615,2.615,0,0,1,2.613,5.228h0A2.613,2.613,0,0,1,0,2.615v0A2.613,2.613,0,0,1,2.613,0Z" transform="translate(19.393 41.549)" fill="#fff"/>
    </g>
    <path id="Path_2" data-name="Path 2" d="M-53.385-22.02h16.68a3.318,3.318,0,0,1,1.41.225,1.138,1.138,0,0,1,.6.705,4.336,4.336,0,0,1,.15,1.26,4.179,4.179,0,0,1-.15,1.245,1.03,1.03,0,0,1-.51.645,3.5,3.5,0,0,1-1.53.27h-5.73V-2.58a8.314,8.314,0,0,1-.045,1.02,2.435,2.435,0,0,1-.27.765,1.271,1.271,0,0,1-.795.615,5.114,5.114,0,0,1-1.5.18A4.959,4.959,0,0,1-46.56-.18,1.267,1.267,0,0,1-47.34-.8a2.421,2.421,0,0,1-.27-.78,8.715,8.715,0,0,1-.045-1.035V-17.67h-5.76a3.318,3.318,0,0,1-1.41-.225,1.138,1.138,0,0,1-.6-.7,4.336,4.336,0,0,1-.15-1.26,4.179,4.179,0,0,1,.15-1.245,1.03,1.03,0,0,1,.51-.645A3.5,3.5,0,0,1-53.385-22.02Zm36.81,6.33q1.92.84,1.92,2.07a4.863,4.863,0,0,1-.48,1.635q-.48,1.125-.81,1.965l-3.3,8.04a3.1,3.1,0,0,1-1.5,1.86,2.7,2.7,0,0,1-1.14.21A2.1,2.1,0,0,1-23.22-.435,2.7,2.7,0,0,1-24.075-1.5l-.24-.51q-.24-.6-1.77-4.68-.3.72-.885,2.355t-.75,2.04q-.165.4-.21.54a3.341,3.341,0,0,1-.255.5,3.078,3.078,0,0,1-.48.63,2.27,2.27,0,0,1-1.65.72,2.355,2.355,0,0,1-1.56-.525,2.734,2.734,0,0,1-.84-1.065l-4.53-11.04a5.021,5.021,0,0,1-.3-1.17q0-1.2,1.71-1.89a4.4,4.4,0,0,1,1.56-.39,1.7,1.7,0,0,1,.975.255,1.708,1.708,0,0,1,.525.51,2.748,2.748,0,0,1,.24.525q.51,1.2,2.13,5.64l1.77-4.86a2.345,2.345,0,0,1,.66-1.05,2.53,2.53,0,0,1,1.77-.87,2.515,2.515,0,0,1,1.545.48,2.869,2.869,0,0,1,.885.96l.24.51q1.5,4.2,1.77,4.8l1.83-4.98q.72-1.92,2.16-1.92A2.794,2.794,0,0,1-16.575-15.69Zm3.57,2.52A8.715,8.715,0,0,1-12.96-14.2a2.78,2.78,0,0,1,.255-.8q.42-.78,2.34-.78a3.172,3.172,0,0,1,2.04.51,1.653,1.653,0,0,1,.54,1.29q.03.3.03.87v10.5A8.715,8.715,0,0,1-7.8-1.575a2.4,2.4,0,0,1-.285.8Q-8.475,0-10.4,0q-1.89,0-2.31-.81a2.8,2.8,0,0,1-.255-.78,8.66,8.66,0,0,1-.045-1.05Zm4.935-5.565a1.271,1.271,0,0,1-.8.615,5.179,5.179,0,0,1-1.515.18,5.179,5.179,0,0,1-1.515-.18,1.258,1.258,0,0,1-.8-.63,2.574,2.574,0,0,1-.27-.8,8.715,8.715,0,0,1-.045-1.035,8.715,8.715,0,0,1,.045-1.035,2.45,2.45,0,0,1,.255-.765q.42-.81,2.34-.81,1.89,0,2.28.81a2.4,2.4,0,0,1,.285.8,8.715,8.715,0,0,1,.045,1.035A8.715,8.715,0,0,1-7.8-19.515,2.421,2.421,0,0,1-8.07-18.735ZM5.25-22.4a1.271,1.271,0,0,1,.795-.615,5.179,5.179,0,0,1,1.515-.18,5.179,5.179,0,0,1,1.515.18,1.258,1.258,0,0,1,.8.63,2.574,2.574,0,0,1,.27.8,8.715,8.715,0,0,1,.045,1.035V-2.64a8.715,8.715,0,0,1-.045,1.035,2.133,2.133,0,0,1-.285.765Q9.4-.03,7.32-.03T4.995-1.5A4.418,4.418,0,0,1,1.485-.06a6.655,6.655,0,0,1-4.92-2.355,7.753,7.753,0,0,1-2.22-5.49A7.777,7.777,0,0,1-3.42-13.41a6.657,6.657,0,0,1,4.9-2.37,4.212,4.212,0,0,1,3.45,1.5v-6.3a8.715,8.715,0,0,1,.045-1.035A2.421,2.421,0,0,1,5.25-22.4ZM.375-6.09a2.527,2.527,0,0,0,1.89.81A2.386,2.386,0,0,0,4.11-6.09a2.6,2.6,0,0,0,.735-1.785,2.77,2.77,0,0,0-.7-1.815,2.358,2.358,0,0,0-1.905-.84A2.421,2.421,0,0,0,.315-9.7,2.7,2.7,0,0,0-.405-7.89,2.539,2.539,0,0,0,.375-6.09ZM23.19-22.4a1.271,1.271,0,0,1,.8-.615,5.179,5.179,0,0,1,1.515-.18,5.179,5.179,0,0,1,1.515.18,1.258,1.258,0,0,1,.8.63,2.574,2.574,0,0,1,.27.8,8.715,8.715,0,0,1,.045,1.035V-2.64a8.715,8.715,0,0,1-.045,1.035A2.133,2.133,0,0,1,27.8-.84q-.45.81-2.535.81T22.935-1.5a4.418,4.418,0,0,1-3.51,1.44A6.655,6.655,0,0,1,14.5-2.415a7.753,7.753,0,0,1-2.22-5.49A7.777,7.777,0,0,1,14.52-13.41a6.657,6.657,0,0,1,4.905-2.37,4.212,4.212,0,0,1,3.45,1.5v-6.3a8.715,8.715,0,0,1,.045-1.035A2.421,2.421,0,0,1,23.19-22.4ZM18.315-6.09a2.527,2.527,0,0,0,1.89.81,2.386,2.386,0,0,0,1.845-.81,2.6,2.6,0,0,0,.735-1.785A2.77,2.77,0,0,0,22.08-9.69a2.358,2.358,0,0,0-1.9-.84,2.421,2.421,0,0,0-1.92.825,2.7,2.7,0,0,0-.72,1.815A2.539,2.539,0,0,0,18.315-6.09Zm12.21-14.52a8.715,8.715,0,0,1,.045-1.035,2.78,2.78,0,0,1,.255-.8q.42-.81,2.34-.81,1.83,0,2.28.81a2.394,2.394,0,0,1,.285.81,9.126,9.126,0,0,1,.045,1.05V-6.69a3.139,3.139,0,0,0,.18,1.365q.18.285.795.285a4.8,4.8,0,0,1,.825.045,1.5,1.5,0,0,1,.51.255q.6.39.6,2.13,0,1.89-.6,2.31-.78.54-3.72.18-2.31-.3-3-1.53a9.847,9.847,0,0,1-.84-4.68ZM55.275-9.8a3.644,3.644,0,0,1-.915,2.73,2.854,2.854,0,0,1-2.025.885h-7.11a1.645,1.645,0,0,0,.99,1.41,3.938,3.938,0,0,0,1.98.57,8.259,8.259,0,0,0,2.73-.36l.33-.12a3.025,3.025,0,0,1,1.2-.33q.96,0,1.65,1.35a3.311,3.311,0,0,1,.39,1.38q0,2.67-6.39,2.67A9.641,9.641,0,0,1,44.16-.375,6.7,6.7,0,0,1,41.475-2.4a8.626,8.626,0,0,1-1.89-5.43,7.845,7.845,0,0,1,2.445-6.045,8.639,8.639,0,0,1,6.1-2.265,6.818,6.818,0,0,1,6.12,2.94A6.1,6.1,0,0,1,55.275-9.8Zm-6.33.885q1.14,0,1.14-.96a1.351,1.351,0,0,0-.525-1.11,2.35,2.35,0,0,0-1.5-.42,3.032,3.032,0,0,0-1.935.8,2.231,2.231,0,0,0-.96,1.695Z" transform="translate(237.68 378)" fill="#fff"/>
  </g>
</svg>
