<svg id="Group_19470" data-name="Group 19470" xmlns="http://www.w3.org/2000/svg" width="24" height="24" viewBox="0 0 24 24">
  <path id="Path_35361" data-name="Path 35361" d="M0,0H24V24H0Z" fill="none"/>
  <path id="Path_35362" data-name="Path 35362" d="M17,8V5a1,1,0,0,0-1-1H6A2,2,0,0,0,6,8H18a1,1,0,0,1,1,1v3m0,4v3a1,1,0,0,1-1,1H6a2,2,0,0,1-2-2V6" fill="none" stroke="#0336ff" stroke-linecap="round" stroke-linejoin="round" stroke-width="1.5"/>
  <path id="Path_35363" data-name="Path 35363" d="M20,12v4H16a2,2,0,0,1,0-4h4" fill="none" stroke="#0336ff" stroke-linecap="round" stroke-linejoin="round" stroke-width="1.5"/>
</svg>
