<svg xmlns="http://www.w3.org/2000/svg" width="41.259" height="40" viewBox="0 0 41.259 40">
  <g id="Group_19486" data-name="Group 19486" transform="translate(-1767.361 -722.87)">
    <path id="Path_35378" data-name="Path 35378" d="M1767.361,751.782c1.21,0,2.42-.006,3.628,0a.386.386,0,0,0,.436-.292,2.533,2.533,0,0,1,2.443-1.647c.6,0,1.21,0,1.86,0V743.8a8.249,8.249,0,0,0,3.879,0v6.041c.647,0,1.248,0,1.848,0a2.594,2.594,0,0,1,2.517,1.674.457.457,0,0,0,.321.25c3.414.013,6.827.01,10.24.009a.672.672,0,0,0,.138-.032l.862-3.033a8.328,8.328,0,0,0,5.592,0l.867,3.046h6.627v1.31h-41.259Z" transform="translate(0 9.799)" fill="#0336ff"/>
    <path id="Path_35379" data-name="Path 35379" d="M1777.437,735.773q-3.748,0-7.5,0a1.948,1.948,0,0,1-2.138-2.118q0-4.334,0-8.668a1.945,1.945,0,0,1,2.1-2.116q7.578,0,15.155,0a1.939,1.939,0,0,1,2.1,2.078q0,4.373,0,8.747a1.943,1.943,0,0,1-2.1,2.077Q1781.245,735.775,1777.437,735.773Zm1.063-3.008-7.659-7.656-.842.765,7.7,7.694Zm-2.035-6.865,7.656,7.658.849-.788-7.716-7.717Z" transform="translate(0.206 0)" fill="#0336ff"/>
    <path id="Path_35380" data-name="Path 35380" d="M1769.6,737.825h14.142a7.1,7.1,0,1,1-14.142,0Z" transform="translate(1.03 7.001)" fill="#0336ff"/>
    <path id="Path_35381" data-name="Path 35381" d="M1783.66,741.341H1797.8a7.1,7.1,0,1,1-14.144,0Z" transform="translate(7.612 8.646)" fill="#0336ff"/>
    <path id="Path_35382" data-name="Path 35382" d="M1797.779,740.722h-14.141v-3.845h2.527v-1.295h-2.53v-1.266h14.144Z" transform="translate(7.618 5.358)" fill="#0336ff"/>
    <path id="Path_35383" data-name="Path 35383" d="M1782.755,733.8v-1.243h16.723V733.8Z" transform="translate(7.206 4.532)" fill="#0336ff"/>
    <path id="Path_35384" data-name="Path 35384" d="M1782.754,740.824v-1.239h16.737v1.239Z" transform="translate(7.206 7.825)" fill="#0336ff"/>
    <path id="Path_35385" data-name="Path 35385" d="M1783.722,736.072v1.243H1769.58v-1.243Z" transform="translate(1.039 6.18)" fill="#0336ff"/>
    <path id="Path_35386" data-name="Path 35386" d="M1777.094,735.1h-1.28v-1.24h-3.227v2.529h-2.553a1.827,1.827,0,0,1-.033-.251c0-.94-.006-1.878,0-2.817,0-.549.233-.778.788-.779,1.65,0,3.3-.006,4.951,0a1.288,1.288,0,0,1,1.355,1.332C1777.1,734.274,1777.094,734.673,1777.094,735.1Z" transform="translate(1.234 4.525)" fill="#0336ff"/>
    <path id="Path_35387" data-name="Path 35387" d="M1787.145,725.036v-1.268h1.277v1.268l.012-.012h-1.3Z" transform="translate(9.256 0.42)" fill="#0336ff"/>
    <path id="Path_35388" data-name="Path 35388" d="M1787.544,725.914h-1.267v-1.279h1.269l-.012-.012v1.3Z" transform="translate(8.855 0.821)" fill="#0336ff"/>
    <path id="Path_35389" data-name="Path 35389" d="M1788.011,724.636h1.268v1.279h-1.267l.01.012v-1.3Z" transform="translate(9.667 0.821)" fill="#0336ff"/>
    <path id="Path_35390" data-name="Path 35390" d="M1788.423,725.5v1.268h-1.28V725.5l-.01.012h1.3Z" transform="translate(9.256 1.232)" fill="#0336ff"/>
    <path id="Path_35391" data-name="Path 35391" d="M1782.75,727.672v-1.267h1.277v1.267l.013-.01h-1.3Z" transform="translate(7.198 1.655)" fill="#0336ff"/>
    <path id="Path_35392" data-name="Path 35392" d="M1783.15,728.55h-1.269v-1.279h1.269l-.012-.01v1.3Z" transform="translate(6.798 2.055)" fill="#0336ff"/>
    <path id="Path_35393" data-name="Path 35393" d="M1783.616,727.271h1.269v1.279h-1.267l.012.013v-1.3Z" transform="translate(7.609 2.055)" fill="#0336ff"/>
    <path id="Path_35394" data-name="Path 35394" d="M1784.028,728.139v1.268h-1.279v-1.268l-.012.013h1.3Z" transform="translate(7.198 2.466)" fill="#0336ff"/>
    <path id="Path_35395" data-name="Path 35395" d="M1791.539,729.43v-1.267h1.279v1.267l.011-.01h-1.3Z" transform="translate(11.313 2.478)" fill="#0336ff"/>
    <path id="Path_35396" data-name="Path 35396" d="M1791.939,730.308h-1.269v-1.279h1.269l-.012-.01v1.3Z" transform="translate(10.912 2.878)" fill="#0336ff"/>
    <path id="Path_35397" data-name="Path 35397" d="M1792.406,729.029h1.267v1.279h-1.267l.011.012v-1.3Z" transform="translate(11.724 2.878)" fill="#0336ff"/>
    <path id="Path_35398" data-name="Path 35398" d="M1792.817,729.9v1.268h-1.279V729.9l-.012.012h1.3Z" transform="translate(11.313 3.289)" fill="#0336ff"/>
  </g>
</svg>
